<svg height="512pt" viewBox="0 0 512.00587 512" width="512pt" xmlns="http://www.w3.org/2000/svg"><path d="m426.671875 256.003906c0 94.253906-76.410156 170.664063-170.664063 170.664063-94.257812 0-170.667968-76.410157-170.667968-170.664063 0-94.257812 76.410156-170.667968 170.667968-170.667968 94.253907 0 170.664063 76.410156 170.664063 170.667968zm0 0" fill="#ffc107"/><path d="m218.671875 320.003906c-8.832031 0-16-7.167968-16-16v-80c-8.832031 0-16-7.167968-16-16 0-8.832031 7.167969-16 16-16h16c8.832031 0 16 7.167969 16 16v96c0 8.832032-7.167969 16-16 16zm0 0"/><path d="m325.339844 320.003906h-10.667969c-20.585937 0-37.332031-16.746094-37.332031-37.335937v-53.332031c0-20.585938 16.746094-37.332032 37.332031-37.332032h10.667969c20.585937 0 37.332031 16.746094 37.332031 37.332032v53.332031c0 20.589843-16.746094 37.335937-37.332031 37.335937zm-10.667969-96c-2.941406 0-5.332031 2.386719-5.332031 5.332032v53.332031c0 2.945312 2.390625 5.335937 5.332031 5.335937h10.667969c2.945312 0 5.332031-2.390625 5.332031-5.335937v-53.332031c0-2.945313-2.386719-5.332032-5.332031-5.332032zm0 0"/><path d="m133.210938 192.003906h-117.203126c-8.832031 0-15.9999995-7.167968-15.9999995-16v-117.335937c0-8.832031 7.1679685-16 15.9999995-16 8.828126 0 16 7.167969 16 16v101.335937h101.203126c8.832031 0 16 7.167969 16 16 0 8.832032-7.167969 16-16 16zm0 0"/><path d="m256.007812 512.003906c-68.480468 0-132.757812-26.667968-180.929687-75.117187-6.25-6.269531-6.207031-16.402344.042969-22.632813 6.269531-6.230468 16.40625-6.230468 22.632812.042969 42.15625 42.367187 98.347656 65.707031 158.253906 65.707031 123.519532 0 224-100.480468 224-224 0-123.519531-100.480468-224-224-224-99.4375 0-194.050781 62.804688-224.941406 149.375-2.984375 8.320313-12.179687 12.695313-20.4375 9.683594-8.339844-2.964844-12.671875-12.117188-9.683594-20.4375 35.261719-98.878906 142.546876-170.62109375 255.0625-170.62109375 141.160157 0 256 114.83593775 256 255.99999975 0 141.160156-114.839843 256-256 256zm0 0"/></svg>